<svg width="270" height="273" viewBox="0 0 270 273" fill="none" xmlns="http://www.w3.org/2000/svg">
<g filter="url(#filter0_d_412_11)">
<rect x="6" width="260" height="264.896" rx="65" fill="white"/>
</g>
<g opacity="0.7">
<g filter="url(#filter1_d_412_11)">
<rect x="6" width="260" height="264.896" rx="65" fill="url(#paint0_linear_412_11)"/>
<rect x="6" width="260" height="264.896" rx="65" fill="url(#paint1_linear_412_11)"/>
</g>
<path d="M55.0075 66.0507H85.6075L103.608 149.211L99.6475 147.411L131.868 86.0307L139.608 121.851L91.3675 203.751L55.0075 66.0507ZM121.428 66.0507H147.348L170.028 146.511L165.528 145.791L199.548 66.0507H227.628L159.588 203.391L121.428 66.0507Z" fill="black"/>
<path d="M55.0075 66.0507V65.0507H53.7092L54.0406 66.306L55.0075 66.0507ZM85.6075 66.0507L86.5849 65.8392L86.4142 65.0507H85.6075V66.0507ZM103.608 149.211L103.194 150.121L105.006 150.945L104.585 148.999L103.608 149.211ZM99.6475 147.411L98.7621 146.946L98.2701 147.883L99.2337 148.321L99.6475 147.411ZM131.868 86.0307L132.845 85.8195L132.263 83.1259L130.982 85.5659L131.868 86.0307ZM139.608 121.851L140.469 122.358L140.667 122.021L140.585 121.639L139.608 121.851ZM91.3675 203.751L90.4006 204.006L91.0126 206.324L92.2291 204.258L91.3675 203.751ZM121.428 66.0507V65.0507H120.112L120.464 66.3184L121.428 66.0507ZM147.348 66.0507L148.31 65.7794L148.105 65.0507H147.348V66.0507ZM170.028 146.511L169.87 147.498L171.414 147.745L170.99 146.239L170.028 146.511ZM165.528 145.791L164.608 145.398L164.105 146.576L165.37 146.778L165.528 145.791ZM199.548 66.0507V65.0507H198.887L198.628 65.6583L199.548 66.0507ZM227.628 66.0507L228.524 66.4946L229.239 65.0507H227.628V66.0507ZM159.588 203.391L158.624 203.658L159.324 206.176L160.484 203.835L159.588 203.391ZM55.0075 67.0507H85.6075V65.0507H55.0075V67.0507ZM84.6301 66.2623L102.63 149.422L104.585 148.999L86.5849 65.8392L84.6301 66.2623ZM104.021 148.3L100.061 146.5L99.2337 148.321L103.194 150.121L104.021 148.3ZM100.533 147.875L132.753 86.4955L130.982 85.5659L98.7621 146.946L100.533 147.875ZM130.89 86.2419L138.63 122.062L140.585 121.639L132.845 85.8195L130.89 86.2419ZM138.746 121.343L90.5059 203.243L92.2291 204.258L140.469 122.358L138.746 121.343ZM92.3344 203.495L55.9744 65.7954L54.0406 66.306L90.4006 204.006L92.3344 203.495ZM121.428 67.0507H147.348V65.0507H121.428V67.0507ZM146.385 66.322L169.065 146.782L170.99 146.239L148.31 65.7794L146.385 66.322ZM170.185 145.523L165.686 144.803L165.37 146.778L169.87 147.498L170.185 145.523ZM166.447 146.183L200.467 66.4431L198.628 65.6583L164.608 145.398L166.447 146.183ZM199.548 67.0507H227.628V65.0507H199.548V67.0507ZM226.731 65.6068L158.691 202.947L160.484 203.835L228.524 66.4946L226.731 65.6068ZM160.551 203.123L122.391 65.783L120.464 66.3184L158.624 203.658L160.551 203.123Z" fill="black"/>
</g>
<defs>
<filter id="filter0_d_412_11" x="2" y="0" width="268" height="272.896" filterUnits="userSpaceOnUse" color-interpolation-filters="sRGB">
<feFlood flood-opacity="0" result="BackgroundImageFix"/>
<feColorMatrix in="SourceAlpha" type="matrix" values="0 0 0 0 0 0 0 0 0 0 0 0 0 0 0 0 0 0 127 0" result="hardAlpha"/>
<feOffset dy="4"/>
<feGaussianBlur stdDeviation="2"/>
<feComposite in2="hardAlpha" operator="out"/>
<feColorMatrix type="matrix" values="0 0 0 0 0 0 0 0 0 0 0 0 0 0 0 0 0 0 0.25 0"/>
<feBlend mode="normal" in2="BackgroundImageFix" result="effect1_dropShadow_412_11"/>
<feBlend mode="normal" in="SourceGraphic" in2="effect1_dropShadow_412_11" result="shape"/>
</filter>
<filter id="filter1_d_412_11" x="2" y="0" width="268" height="272.896" filterUnits="userSpaceOnUse" color-interpolation-filters="sRGB">
<feFlood flood-opacity="0" result="BackgroundImageFix"/>
<feColorMatrix in="SourceAlpha" type="matrix" values="0 0 0 0 0 0 0 0 0 0 0 0 0 0 0 0 0 0 127 0" result="hardAlpha"/>
<feOffset dy="4"/>
<feGaussianBlur stdDeviation="2"/>
<feComposite in2="hardAlpha" operator="out"/>
<feColorMatrix type="matrix" values="0 0 0 0 0 0 0 0 0 0 0 0 0 0 0 0 0 0 0.25 0"/>
<feBlend mode="normal" in2="BackgroundImageFix" result="effect1_dropShadow_412_11"/>
<feBlend mode="normal" in="SourceGraphic" in2="effect1_dropShadow_412_11" result="shape"/>
</filter>
<linearGradient id="paint0_linear_412_11" x1="136" y1="0" x2="136" y2="264.896" gradientUnits="userSpaceOnUse">
<stop stop-color="#8462FD"/>
<stop offset="1" stop-color="#8462FD"/>
</linearGradient>
<linearGradient id="paint1_linear_412_11" x1="136" y1="0" x2="136" y2="264.896" gradientUnits="userSpaceOnUse">
<stop stop-color="#47C2FA" stop-opacity="0"/>
<stop offset="1" stop-color="#47C2FA"/>
</linearGradient>
</defs>
</svg>
